# Blender 3.1.0
# www.blender.org
mtllib cube.mtl
o cube
v -4.766476 0.928380 4.766476
v 4.766476 0.928380 4.766476
v 4.766476 10.461331 4.766478
v -4.766476 10.461331 4.766478
v 4.766476 10.461333 -4.766476
v -4.766476 10.461333 -4.766476
v 4.766476 0.928381 -4.766478
v -4.766476 0.928381 -4.766478
vn -0.0000 -0.0000 1.0000
vn -0.0000 1.0000 -0.0000
vn -0.0000 -0.0000 -1.0000
vn -0.0000 -1.0000 -0.0000
vn 1.0000 -0.0000 -0.0000
vn -1.0000 -0.0000 -0.0000
vt 0.375000 1.000000
vt 0.375000 0.000000
vt 0.625000 1.000000
vt 0.625000 0.000000
vt 0.625000 0.250000
vt 0.375000 0.250000
vt 0.625000 0.500000
vt 0.875000 0.250000
vt 0.375000 0.500000
vt 0.125000 0.250000
vt 0.625000 0.750000
vt 0.875000 0.000000
vt 0.375000 0.750000
vt 0.125000 0.000000
s 1
usemtl initialShadingGroup
f 1/2/1 2/4/1 3/5/1 4/6/1
f 4/6/2 3/5/2 5/7/2 6/9/2
f 6/9/3 5/7/3 7/11/3 8/13/3
f 8/13/4 7/11/4 2/3/4 1/1/4
f 2/4/5 7/12/5 5/8/5 3/5/5
f 8/14/6 1/2/6 4/6/6 6/10/6
